<?xml version="1.0" encoding="utf-8"?>
<!-- Generator: Adobe Illustrator 26.1.0, SVG Export Plug-In . SVG Version: 6.00 Build 0)  -->
<svg version="1.1" id="Camada_1" xmlns="http://www.w3.org/2000/svg" xmlns:xlink="http://www.w3.org/1999/xlink" x="0px" y="0px"
	 viewBox="0 0 841.89 595.28" style="enable-background:new 0 0 841.89 595.28;" xml:space="preserve">
<style type="text/css">
	.st0{fill:#052526;}
	.st1{fill:#A6CA5C;}
	.st2{fill:#14A6C7;}
	.st3{fill:#A66640;}
	.st4{fill:none;stroke:#052526;stroke-width:5;stroke-miterlimit:10;}
</style>
<g>
	<g>
		<g>
			<path class="st0" d="M365,395.53c-2.07-0.34-2.93-1.72-2.76-3.97l1.55-20.18c0.17-2.24,1.72-3.45,3.97-2.93
				c3.79,0.86,8.28,1.55,13.45,1.55c5.86,0,13.28-1.03,13.28-7.76c0-4.83-1.9-7.24-13.63-18.97c-13.11-13.11-17.94-22.08-17.77-37.6
				c0.34-23.8,13.97-32.25,37.26-31.91c6.55,0.17,13.11,0.86,19.32,2.24c2.07,0.52,2.93,1.72,2.76,3.97l-1.55,19.15
				c-0.17,2.24-1.72,3.45-3.97,2.93c-3.28-0.69-6.55-1.21-9.14-1.21c-4.66,0-12.25,0.69-12.25,7.93c0,4.83-0.17,7.24,14.66,22.08
				c11.56,11.56,17.25,18.97,17.25,32.08c0,27.6-15.52,35.01-36.39,35.01C382.25,397.94,372.59,397.08,365,395.53z"/>
			<path class="st0" d="M444.35,396.22c-2.19,0-3.75-1.61-3.51-3.74c2.47-22.47,10.81-76.42,18.15-114.31
				c0.31-1.62,1.61-2.68,3.26-2.68h41.84c1.64,0,2.93,1.05,3.25,2.65c7.43,37.22,15.36,91.61,17.66,114.38
				c0.21,2.11-1.34,3.7-3.51,3.7h-24.4c-1.94,0-3.37-1.36-3.53-3.29c-0.5-6.28-1.12-12.97-1.83-19.92
				c-0.05-0.46-0.39-0.77-0.85-0.77h-15.92c-0.45,0-0.8,0.31-0.85,0.76c-0.76,6.96-1.41,13.66-1.91,19.93
				c-0.15,1.92-1.58,3.29-3.53,3.29L444.35,396.22L444.35,396.22z M487.51,344.48c0.58,0,0.98-0.45,0.91-1.03
				c-1.5-12.38-3.13-24.87-4.75-36.75c0-0.17-1.03-0.17-1.03,0c-1.61,11.86-3.33,24.36-4.94,36.74c-0.08,0.58,0.32,1.04,0.91,1.04
				H487.51z"/>
			<path class="st0" d="M542.83,392.77V278.93c0-2.24,1.21-3.45,3.45-3.45h32.08c12.94,0,22.77,2.07,29.84,8.11
				c9.49,8.28,13.97,23.97,13.97,52.26c0,25.87-3.79,41.22-11.56,50.02c-7.24,7.93-17.94,10.35-32.25,10.35h-32.08
				C544.03,396.22,542.83,395.01,542.83,392.77z M574.39,368.27h3.97c4.14,0,6.73-1.55,8.62-4.48c3.28-5.52,3.79-15.52,3.79-27.94
				c0-13.63-0.59-23.92-4.48-28.98c-1.72-2.24-4.31-3.45-7.93-3.45h-3.97c-0.52,0-0.86,0.35-0.86,0.86v63.13
				C573.53,367.93,573.87,368.27,574.39,368.27z"/>
			<path class="st0" d="M638.21,396.22c-2.19,0-3.75-1.61-3.51-3.74c2.47-22.47,10.81-76.42,18.15-114.31
				c0.31-1.62,1.61-2.68,3.26-2.68h41.84c1.64,0,2.93,1.05,3.25,2.65c7.43,37.22,15.36,91.61,17.66,114.38
				c0.21,2.11-1.34,3.7-3.51,3.7h-24.4c-1.94,0-3.37-1.36-3.53-3.29c-0.5-6.28-1.12-12.97-1.83-19.92
				c-0.05-0.46-0.39-0.77-0.85-0.77h-15.92c-0.45,0-0.8,0.31-0.85,0.76c-0.76,6.96-1.41,13.66-1.91,19.93
				c-0.15,1.92-1.58,3.29-3.53,3.29L638.21,396.22L638.21,396.22z M681.38,344.48c0.58,0,0.98-0.45,0.91-1.03
				c-1.5-12.38-3.13-24.87-4.75-36.75c0-0.17-1.03-0.17-1.03,0c-1.61,11.86-3.33,24.36-4.94,36.74c-0.08,0.58,0.32,1.04,0.91,1.04
				H681.38z"/>
			<path class="st0" d="M814.31,318.77c0,31.39-8.45,42.26-43.81,42.26h-1.55c-0.52,0-0.86,0.34-0.86,0.86v30.87
				c0,2.24-1.21,3.45-3.45,3.45h-24.49c-2.24,0-3.45-1.21-3.45-3.45V278.93c0-2.24,1.21-3.45,3.45-3.45h30.36
				C805.86,275.48,814.31,284.79,814.31,318.77z M782.92,318.77c0-14.32-2.59-16.04-12.07-16.04h-1.9c-0.52,0-0.86,0.34-0.86,0.86
				v29.49c0,0.52,0.34,0.86,0.86,0.86h1.9C779.81,333.95,782.92,332.23,782.92,318.77z"/>
		</g>
		<g>
			<path class="st0" d="M366.5,436.86l0.44-2.02c1.33,0.74,2.63,1.1,3.89,1.1c2.1,0,3.16-1.01,3.16-3.02c0-0.5-0.08-0.94-0.23-1.32
				c-0.15-0.38-0.4-0.7-0.75-0.98c-0.35-0.28-0.67-0.5-0.96-0.66c-0.29-0.16-0.71-0.36-1.26-0.59c-1.42-0.63-2.47-1.3-3.16-2.02
				c-0.68-0.72-1.02-1.73-1.02-3.04c0-1.78,0.46-3.05,1.39-3.81c0.93-0.76,2.12-1.14,3.57-1.14c1.09,0,2.3,0.21,3.63,0.62
				l-0.39,1.89c-1.23-0.41-2.31-0.62-3.24-0.62c-1.96,0-2.94,0.91-2.94,2.72c0,0.9,0.26,1.59,0.78,2.06
				c0.52,0.48,1.31,0.94,2.35,1.39c1.45,0.65,2.52,1.35,3.21,2.11c0.69,0.76,1.03,1.81,1.03,3.14c0,1.81-0.51,3.16-1.52,4.03
				c-1.02,0.87-2.28,1.31-3.81,1.31C369.23,437.99,367.83,437.61,366.5,436.86z"/>
			<path class="st0" d="M380.49,419.65v17.99h-1.91v-17.99H380.49z"/>
			<path class="st0" d="M383.06,436.86l0.44-2.02c1.33,0.74,2.63,1.1,3.89,1.1c2.1,0,3.16-1.01,3.16-3.02c0-0.5-0.08-0.94-0.23-1.32
				c-0.15-0.38-0.4-0.7-0.75-0.98c-0.35-0.28-0.67-0.5-0.96-0.66c-0.29-0.16-0.71-0.36-1.26-0.59c-1.42-0.63-2.47-1.3-3.16-2.02
				c-0.68-0.72-1.02-1.73-1.02-3.04c0-1.78,0.46-3.05,1.39-3.81c0.93-0.76,2.12-1.14,3.57-1.14c1.09,0,2.3,0.21,3.63,0.62
				l-0.39,1.89c-1.23-0.41-2.31-0.62-3.24-0.62c-1.96,0-2.94,0.91-2.94,2.72c0,0.9,0.26,1.59,0.78,2.06
				c0.52,0.48,1.31,0.94,2.35,1.39c1.45,0.65,2.52,1.35,3.21,2.11c0.69,0.76,1.03,1.81,1.03,3.14c0,1.81-0.51,3.16-1.52,4.03
				c-1.02,0.87-2.28,1.31-3.81,1.31C385.79,437.99,384.39,437.61,383.06,436.86z"/>
			<path class="st0" d="M393.81,421.64v-1.99h10.38v1.99h-4.24v16h-1.87v-16H393.81z"/>
			<path class="st0" d="M415.09,435.65v1.99h-8.79v-17.99h8.55v1.99h-6.64v5.74h6.29v1.99h-6.29v6.28H415.09z"/>
			<path class="st0" d="M420.72,419.65l4.57,13.01l4.53-13.01h2.17l0.65,17.99h-1.91l-0.44-14.52l-4.34,11.85l-1.63-0.01
				l-4.34-11.95l-0.44,14.63h-1.91l0.65-17.99H420.72z"/>
			<path class="st0" d="M437.57,432.93l-1.34,4.71h-2l5.29-17.99h2.24l5.29,17.99h-2l-1.37-4.71H437.57z M440.63,422.13l-2.5,8.83
				h4.99L440.63,422.13z"/>
			<path class="st0" d="M454.31,432.93l-1.34,4.71h-2l5.29-17.99h2.24l5.29,17.99h-2l-1.37-4.71H454.31z M457.37,422.13l-2.5,8.83
				h4.99L457.37,422.13z"/>
			<path class="st0" d="M464.92,428.62c0-1.76,0.19-3.28,0.57-4.55c0.38-1.27,0.89-2.24,1.55-2.91c0.65-0.66,1.35-1.14,2.09-1.44
				c0.74-0.3,1.54-0.44,2.42-0.44c1.32,0,2.59,0.21,3.81,0.62l-0.37,1.97c-1.04-0.38-2.21-0.57-3.48-0.57
				c-0.61,0-1.17,0.12-1.68,0.35c-0.51,0.23-0.98,0.62-1.43,1.14c-0.44,0.53-0.79,1.28-1.04,2.25s-0.38,2.13-0.38,3.47
				c0,4.97,1.64,7.46,4.92,7.46c0.71,0,1.44-0.11,2.18-0.32v-6.41h1.78v7.84c-1.52,0.61-2.92,0.92-4.18,0.92
				c-0.94,0-1.81-0.16-2.59-0.49c-0.78-0.32-1.49-0.83-2.13-1.54c-0.64-0.7-1.14-1.67-1.49-2.92
				C465.09,431.8,464.92,430.32,464.92,428.62z"/>
			<path class="st0" d="M486.85,437.64l-3.98-6.98h-0.31c-0.7,0-1.33-0.06-1.89-0.19v7.17h-1.94v-17.8
				c1.35-0.25,2.59-0.38,3.72-0.38c0.65,0,1.24,0.04,1.75,0.11c0.52,0.07,1.04,0.22,1.58,0.44c0.54,0.22,0.98,0.53,1.34,0.9
				c0.36,0.38,0.65,0.9,0.87,1.58c0.22,0.67,0.34,1.46,0.34,2.36c0,2.91-1.14,4.73-3.42,5.47l4.26,7.33H486.85z M480.67,421.48v7.11
				c0.68,0.16,1.33,0.24,1.94,0.24c1.07,0,1.97-0.3,2.69-0.9c0.72-0.6,1.08-1.58,1.08-2.95c0-0.77-0.11-1.41-0.32-1.93
				s-0.51-0.88-0.9-1.12c-0.39-0.23-0.79-0.39-1.21-0.48c-0.41-0.09-0.91-0.13-1.49-0.13C481.85,421.32,481.25,421.37,480.67,421.48
				z"/>
			<path class="st0" d="M495.27,415.31l-3.74,2.8l-0.78-1.48l3.48-3.29L495.27,415.31z M492.9,419.65v17.99h-1.91v-17.99H492.9z"/>
			<path class="st0" d="M498.43,428.51c0,2.8,0.38,4.76,1.14,5.87c0.76,1.11,1.9,1.67,3.41,1.67c0.81,0,1.89-0.14,3.24-0.43
				l0.2,1.89c-1.15,0.34-2.36,0.51-3.63,0.51c-2.23,0-3.86-0.86-4.87-2.57c-1.02-1.71-1.52-4.02-1.52-6.91
				c0-1.42,0.12-2.68,0.36-3.77c0.24-1.1,0.55-1.98,0.95-2.67c0.39-0.68,0.87-1.24,1.43-1.67c0.56-0.43,1.13-0.73,1.72-0.9
				c0.59-0.17,1.21-0.26,1.88-0.26c1.38,0,2.64,0.23,3.79,0.7l-0.33,1.83c-1.1-0.39-2.23-0.59-3.39-0.59c-1.36,0-2.43,0.55-3.2,1.66
				C498.81,423.97,498.43,425.85,498.43,428.51z"/>
			<path class="st0" d="M514.12,419.27c0.96,0,1.8,0.17,2.51,0.5c0.72,0.33,1.29,0.78,1.73,1.33c0.44,0.56,0.79,1.25,1.07,2.07
				c0.28,0.83,0.46,1.67,0.57,2.55c0.1,0.87,0.15,1.85,0.15,2.92c0,1.06-0.05,2.02-0.15,2.9c-0.1,0.87-0.29,1.72-0.58,2.55
				c-0.28,0.83-0.65,1.52-1.09,2.07c-0.44,0.56-1.03,1.01-1.75,1.35c-0.73,0.34-1.57,0.51-2.52,0.51c-0.99,0-1.85-0.17-2.58-0.51
				c-0.73-0.34-1.32-0.78-1.75-1.32c-0.44-0.54-0.78-1.23-1.03-2.07c-0.25-0.84-0.42-1.69-0.51-2.55c-0.09-0.85-0.13-1.83-0.13-2.92
				c0-1.35,0.09-2.55,0.27-3.6c0.18-1.05,0.49-2.03,0.92-2.94c0.44-0.91,1.06-1.61,1.88-2.1
				C511.94,419.52,512.94,419.27,514.12,419.27z M514.09,436.16c0.65,0,1.22-0.13,1.71-0.39c0.49-0.26,0.88-0.61,1.17-1.04
				c0.3-0.43,0.54-0.97,0.73-1.63s0.32-1.34,0.38-2.05c0.07-0.71,0.1-1.51,0.1-2.41c0-1.15-0.06-2.15-0.17-3
				c-0.12-0.85-0.32-1.64-0.61-2.36c-0.29-0.72-0.71-1.27-1.26-1.64c-0.55-0.38-1.23-0.57-2.05-0.57c-0.81,0-1.49,0.19-2.05,0.57
				c-0.55,0.38-0.98,0.92-1.27,1.64c-0.3,0.72-0.5,1.5-0.62,2.36c-0.12,0.85-0.17,1.85-0.17,3c0,1.13,0.06,2.12,0.17,2.98
				c0.12,0.85,0.32,1.63,0.61,2.34c0.29,0.71,0.71,1.25,1.27,1.63C512.6,435.97,513.28,436.16,514.09,436.16z"/>
			<path class="st0" d="M531.04,435.65v1.99h-8.07v-17.99h1.91v16H531.04z"/>
			<path class="st0" d="M534.99,432.93l-1.34,4.71h-2l5.29-17.99h2.24l5.29,17.99h-2l-1.37-4.71H534.99z M538.05,422.13l-2.5,8.83
				h4.99L538.05,422.13z"/>
			<path class="st0" d="M550.43,437.48v-17.67c1.58-0.23,2.92-0.35,4.03-0.35c1.17,0,2.18,0.14,3.02,0.43
				c0.84,0.29,1.58,0.77,2.23,1.45c0.65,0.68,1.13,1.63,1.46,2.86c0.33,1.22,0.49,2.71,0.49,4.47c0,1.44-0.13,2.7-0.39,3.78
				c-0.26,1.09-0.61,1.97-1.04,2.65c-0.44,0.68-0.97,1.24-1.61,1.67c-0.64,0.43-1.3,0.73-1.99,0.9c-0.69,0.17-1.45,0.26-2.3,0.26
				C553.43,437.94,552.13,437.78,550.43,437.48z M552.37,421.5v14.17c0.7,0.16,1.37,0.24,2.02,0.24c1.6,0,2.86-0.58,3.8-1.74
				c0.94-1.16,1.4-3,1.4-5.54c0-2.5-0.42-4.34-1.25-5.52c-0.83-1.19-2.11-1.78-3.84-1.78C553.83,421.34,553.12,421.4,552.37,421.5z"
				/>
			<path class="st0" d="M573.32,435.65v1.99h-8.79v-17.99h8.55v1.99h-6.64v5.74h6.29v1.99h-6.29v6.28H573.32z"/>
			<path class="st0" d="M582.03,432.93l-1.34,4.71h-2l5.29-17.99h2.24l5.29,17.99h-2l-1.37-4.71H582.03z M585.09,422.13l-2.5,8.83
				h4.99L585.09,422.13z"/>
			<path class="st0" d="M603.92,431.09c0,2.37-0.42,4.11-1.26,5.23c-0.84,1.11-2.21,1.68-4.11,1.7c-1.83,0-3.18-0.56-4.05-1.68
				c-0.87-1.12-1.31-2.87-1.31-5.24v-11.45h1.91v11.04c0,1.81,0.24,3.15,0.73,4.01c0.49,0.86,1.4,1.29,2.75,1.29
				c1.29,0,2.19-0.41,2.69-1.23c0.5-0.82,0.75-2.18,0.75-4.08v-11.04h1.89V431.09z"/>
			<path class="st0" d="M605.94,421.64v-1.99h10.38v1.99h-4.24v16h-1.87v-16H605.94z"/>
			<path class="st0" d="M623.54,419.27c0.96,0,1.8,0.17,2.51,0.5c0.72,0.33,1.29,0.78,1.73,1.33c0.44,0.56,0.79,1.25,1.07,2.07
				c0.28,0.83,0.46,1.67,0.57,2.55c0.1,0.87,0.15,1.85,0.15,2.92c0,1.06-0.05,2.02-0.15,2.9c-0.1,0.87-0.29,1.72-0.58,2.55
				c-0.28,0.83-0.65,1.52-1.09,2.07c-0.44,0.56-1.03,1.01-1.75,1.35c-0.73,0.34-1.57,0.51-2.52,0.51c-0.99,0-1.85-0.17-2.58-0.51
				c-0.73-0.34-1.32-0.78-1.75-1.32c-0.44-0.54-0.78-1.23-1.03-2.07c-0.25-0.84-0.42-1.69-0.51-2.55c-0.09-0.85-0.13-1.83-0.13-2.92
				c0-1.35,0.09-2.55,0.27-3.6c0.18-1.05,0.49-2.03,0.92-2.94c0.44-0.91,1.06-1.61,1.88-2.1
				C621.37,419.52,622.37,419.27,623.54,419.27z M623.52,436.16c0.65,0,1.22-0.13,1.71-0.39c0.49-0.26,0.88-0.61,1.17-1.04
				c0.3-0.43,0.54-0.97,0.73-1.63c0.19-0.66,0.32-1.34,0.38-2.05c0.07-0.71,0.1-1.51,0.1-2.41c0-1.15-0.06-2.15-0.17-3
				c-0.12-0.85-0.32-1.64-0.61-2.36c-0.29-0.72-0.71-1.27-1.26-1.64c-0.55-0.38-1.23-0.57-2.05-0.57c-0.81,0-1.49,0.19-2.05,0.57
				c-0.55,0.38-0.98,0.92-1.27,1.64c-0.3,0.72-0.5,1.5-0.62,2.36c-0.12,0.85-0.17,1.85-0.17,3c0,1.13,0.06,2.12,0.17,2.98
				c0.12,0.85,0.32,1.63,0.61,2.34c0.29,0.71,0.71,1.25,1.27,1.63C622.02,435.97,622.71,436.16,623.52,436.16z"/>
			<path class="st0" d="M635.18,419.65l4.57,13.01l4.53-13.01h2.17l0.65,17.99h-1.91l-0.44-14.52l-4.34,11.85l-1.63-0.01
				l-4.34-11.95l-0.44,14.63h-1.91l0.65-17.99H635.18z"/>
			<path class="st0" d="M652.03,432.93l-1.34,4.71h-2l5.29-17.99h2.24l5.29,17.99h-2l-1.37-4.71H652.03z M655.09,422.13l-2.5,8.83
				h4.99L655.09,422.13z"/>
			<path class="st0" d="M664.71,428.51c0,2.8,0.38,4.76,1.14,5.87c0.76,1.11,1.9,1.67,3.41,1.67c0.81,0,1.89-0.14,3.24-0.43
				l0.2,1.89c-1.15,0.34-2.36,0.51-3.63,0.51c-2.23,0-3.86-0.86-4.87-2.57c-1.02-1.71-1.52-4.02-1.52-6.91
				c0-1.42,0.12-2.68,0.36-3.77c0.24-1.1,0.55-1.98,0.95-2.67c0.39-0.68,0.87-1.24,1.43-1.67c0.56-0.43,1.13-0.73,1.72-0.9
				c0.59-0.17,1.21-0.26,1.88-0.26c1.38,0,2.64,0.23,3.79,0.7l-0.33,1.83c-1.1-0.39-2.23-0.59-3.39-0.59c-1.36,0-2.43,0.55-3.2,1.66
				C665.1,423.97,664.71,425.85,664.71,428.51z M669.93,438.96c0.23,0.61,0.35,1.19,0.35,1.72c0,1.42-0.77,2.69-2.31,3.82
				l-0.89-1.29c1.02-0.88,1.52-1.77,1.52-2.67c0-0.45-0.13-0.98-0.39-1.59H669.93z"/>
			<path class="st0" d="M677.25,432.93l-1.34,4.71h-2l5.29-17.99h2.24l5.29,17.99h-2l-1.37-4.71H677.25z M677.64,417.81l-0.96-1
				c0.28-0.54,0.6-0.99,0.98-1.36c0.38-0.37,0.75-0.55,1.13-0.55c0.32,0,0.82,0.19,1.49,0.58c0.67,0.39,1.16,0.58,1.45,0.58
				c0.28,0,0.68-0.38,1.22-1.13l0.94,0.97c-0.29,0.61-0.65,1.11-1.09,1.49c-0.44,0.39-0.85,0.58-1.24,0.58
				c-0.33,0-0.82-0.19-1.46-0.58c-0.64-0.39-1.1-0.58-1.37-0.58C678.45,416.82,678.09,417.15,677.64,417.81z M680.31,422.13
				l-2.5,8.83h4.99L680.31,422.13z"/>
			<path class="st0" d="M693.83,419.27c0.96,0,1.8,0.17,2.51,0.5c0.72,0.33,1.29,0.78,1.73,1.33c0.44,0.56,0.79,1.25,1.07,2.07
				c0.28,0.83,0.46,1.67,0.57,2.55c0.1,0.87,0.15,1.85,0.15,2.92c0,1.06-0.05,2.02-0.15,2.9c-0.1,0.87-0.29,1.72-0.58,2.55
				c-0.28,0.83-0.65,1.52-1.09,2.07c-0.44,0.56-1.03,1.01-1.75,1.35c-0.73,0.34-1.57,0.51-2.52,0.51c-0.99,0-1.85-0.17-2.58-0.51
				c-0.73-0.34-1.32-0.78-1.75-1.32c-0.44-0.54-0.78-1.23-1.03-2.07c-0.25-0.84-0.42-1.69-0.51-2.55c-0.09-0.85-0.13-1.83-0.13-2.92
				c0-1.35,0.09-2.55,0.27-3.6c0.18-1.05,0.49-2.03,0.92-2.94c0.44-0.91,1.06-1.61,1.88-2.1
				C691.65,419.52,692.65,419.27,693.83,419.27z M693.8,436.16c0.65,0,1.22-0.13,1.71-0.39c0.49-0.26,0.88-0.61,1.17-1.04
				c0.3-0.43,0.54-0.97,0.73-1.63s0.32-1.34,0.38-2.05c0.07-0.71,0.1-1.51,0.1-2.41c0-1.15-0.06-2.15-0.17-3
				c-0.12-0.85-0.32-1.64-0.61-2.36c-0.29-0.72-0.71-1.27-1.26-1.64c-0.55-0.38-1.23-0.57-2.05-0.57c-0.81,0-1.49,0.19-2.05,0.57
				c-0.55,0.38-0.98,0.92-1.27,1.64c-0.3,0.72-0.5,1.5-0.62,2.36c-0.12,0.85-0.17,1.85-0.17,3c0,1.13,0.06,2.12,0.17,2.98
				c0.12,0.85,0.32,1.63,0.61,2.34c0.29,0.71,0.71,1.25,1.27,1.63C692.31,435.97,692.99,436.16,693.8,436.16z"/>
			<path class="st0" d="M707.25,419.86c1.15-0.27,2.43-0.4,3.85-0.4c0.65,0,1.24,0.04,1.75,0.11c0.51,0.07,1.04,0.22,1.58,0.44
				c0.54,0.22,0.98,0.53,1.34,0.92c0.36,0.39,0.65,0.91,0.87,1.58c0.22,0.66,0.34,1.45,0.34,2.37c0,1.06-0.16,1.98-0.48,2.76
				s-0.76,1.38-1.33,1.79s-1.17,0.71-1.82,0.9c-0.65,0.19-1.36,0.28-2.14,0.28c-0.71,0-1.39-0.08-2.02-0.24v7.27h-1.94V419.86z
				 M709.19,421.48v7.06c0.61,0.14,1.25,0.22,1.91,0.22c2.61,0,3.92-1.25,3.92-3.74c0-0.77-0.11-1.42-0.32-1.94
				c-0.21-0.52-0.51-0.9-0.9-1.14c-0.39-0.24-0.8-0.41-1.22-0.5c-0.42-0.09-0.91-0.13-1.48-0.13
				C710.3,421.29,709.67,421.35,709.19,421.48z"/>
			<path class="st0" d="M727.47,437.64l-3.98-6.98h-0.31c-0.7,0-1.33-0.06-1.89-0.19v7.17h-1.94v-17.8
				c1.35-0.25,2.59-0.38,3.72-0.38c0.65,0,1.24,0.04,1.75,0.11c0.52,0.07,1.04,0.22,1.58,0.44c0.54,0.22,0.98,0.53,1.34,0.9
				c0.36,0.38,0.65,0.9,0.87,1.58c0.22,0.67,0.34,1.46,0.34,2.36c0,2.91-1.14,4.73-3.42,5.47l4.26,7.33H727.47z M721.29,421.48v7.11
				c0.68,0.16,1.33,0.24,1.94,0.24c1.07,0,1.97-0.3,2.69-0.9c0.72-0.6,1.08-1.58,1.08-2.95c0-0.77-0.11-1.41-0.32-1.93
				s-0.51-0.88-0.9-1.12c-0.39-0.23-0.79-0.39-1.21-0.48c-0.41-0.09-0.91-0.13-1.49-0.13C722.46,421.32,721.87,421.37,721.29,421.48
				z"/>
			<path class="st0" d="M737.43,419.27c0.96,0,1.8,0.17,2.51,0.5c0.72,0.33,1.29,0.78,1.73,1.33c0.44,0.56,0.79,1.25,1.07,2.07
				c0.28,0.83,0.46,1.67,0.57,2.55c0.1,0.87,0.15,1.85,0.15,2.92c0,1.06-0.05,2.02-0.15,2.9c-0.1,0.87-0.29,1.72-0.58,2.55
				c-0.28,0.83-0.65,1.52-1.09,2.07c-0.44,0.56-1.03,1.01-1.75,1.35c-0.73,0.34-1.57,0.51-2.52,0.51c-0.99,0-1.85-0.17-2.58-0.51
				c-0.73-0.34-1.32-0.78-1.75-1.32c-0.44-0.54-0.78-1.23-1.03-2.07c-0.25-0.84-0.42-1.69-0.51-2.55c-0.09-0.85-0.13-1.83-0.13-2.92
				c0-1.35,0.09-2.55,0.27-3.6c0.18-1.05,0.49-2.03,0.92-2.94c0.44-0.91,1.06-1.61,1.88-2.1
				C735.26,419.52,736.26,419.27,737.43,419.27z M737.41,436.16c0.65,0,1.22-0.13,1.71-0.39c0.49-0.26,0.88-0.61,1.17-1.04
				c0.3-0.43,0.54-0.97,0.73-1.63s0.32-1.34,0.38-2.05c0.07-0.71,0.1-1.51,0.1-2.41c0-1.15-0.06-2.15-0.17-3
				c-0.12-0.85-0.32-1.64-0.61-2.36c-0.29-0.72-0.71-1.27-1.26-1.64c-0.55-0.38-1.23-0.57-2.05-0.57c-0.81,0-1.49,0.19-2.05,0.57
				c-0.55,0.38-0.98,0.92-1.27,1.64c-0.3,0.72-0.5,1.5-0.62,2.36c-0.12,0.85-0.17,1.85-0.17,3c0,1.13,0.06,2.12,0.17,2.98
				c0.12,0.85,0.32,1.63,0.61,2.34c0.29,0.71,0.71,1.25,1.27,1.63C735.91,435.97,736.6,436.16,737.41,436.16z"/>
			<path class="st0" d="M746.29,437.48v-17.67c1.58-0.23,2.92-0.35,4.03-0.35c1.17,0,2.18,0.14,3.02,0.43
				c0.84,0.29,1.58,0.77,2.23,1.45c0.65,0.68,1.13,1.63,1.46,2.86c0.33,1.22,0.49,2.71,0.49,4.47c0,1.44-0.13,2.7-0.39,3.78
				c-0.26,1.09-0.61,1.97-1.04,2.65c-0.44,0.68-0.97,1.24-1.61,1.67c-0.64,0.43-1.3,0.73-1.99,0.9c-0.69,0.17-1.45,0.26-2.3,0.26
				C749.28,437.94,747.98,437.78,746.29,437.48z M748.22,421.5v14.17c0.7,0.16,1.37,0.24,2.02,0.24c1.6,0,2.86-0.58,3.8-1.74
				c0.94-1.16,1.4-3,1.4-5.54c0-2.5-0.42-4.34-1.25-5.52c-0.83-1.19-2.11-1.78-3.84-1.78C749.69,421.34,748.98,421.4,748.22,421.5z"
				/>
			<path class="st0" d="M771.03,431.09c0,2.37-0.42,4.11-1.26,5.23c-0.84,1.11-2.21,1.68-4.11,1.7c-1.83,0-3.18-0.56-4.05-1.68
				c-0.87-1.12-1.31-2.87-1.31-5.24v-11.45h1.91v11.04c0,1.81,0.24,3.15,0.73,4.01c0.49,0.86,1.4,1.29,2.75,1.29
				c1.29,0,2.19-0.41,2.69-1.23c0.5-0.82,0.75-2.18,0.75-4.08v-11.04h1.89V431.09z"/>
			<path class="st0" d="M773.05,421.64v-1.99h10.38v1.99h-4.24v16h-1.87v-16H773.05z"/>
			<path class="st0" d="M787.46,419.65v17.99h-1.91v-17.99H787.46z"/>
			<path class="st0" d="M799.71,419.65h2.02l-5.11,17.99h-2.13l-5.16-17.99h2.15l4.07,15.1L799.71,419.65z"/>
			<path class="st0" d="M804.83,432.93l-1.34,4.71h-2l5.29-17.99h2.24l5.29,17.99h-2l-1.37-4.71H804.83z M807.89,422.13l-2.5,8.83
				h4.99L807.89,422.13z"/>
		</g>
	</g>
	<g>
		<g>
			<path class="st1" d="M143.78,364.03c0.41,0.3,0.13,0.95-0.38,0.86c-8.68-1.63-17.3-3.2-26.14-3.79
				c-4.73-0.31-9.25,0.07-13.62,0.44c-2.92,0.25-5.69,0.48-8.43,0.51c-5.96,0.06-11.91-0.63-17.67-1.98
				c-7.9-1.86-15.44-4.98-22.19-9.18c-4.53-2.82-8.69-6.13-12.36-9.87c-0.09-0.09-0.14-0.21-0.14-0.34V232.35l0.27,0.2
				c4.89,7.96,11.22,15.03,18.64,20.65c2.26,1.71,4.58,3.2,6.82,4.63c11.4,7.31,21.54,16.39,26.31,29.36
				c2.49,6.76,3.88,13.84,6.11,20.68C108.24,330.07,125.1,350.25,143.78,364.03z"/>
		</g>
		<g>
			<path class="st2" d="M211.81,427.53c0.22,0.32-0.01,0.76-0.4,0.76c-9.49,0-89.14,0-89.91,0c-1.63,0-6.32,0.09-4.64-3.31
				c0.02-0.04,0.04-0.07,0.07-0.1c2.87-3.43,5.73-6.85,8.6-10.28c2.98-3.57,5.91-7.56,9.56-10.41c2.32-1.81,6.86-4.12,1.99-6.33
				c-2.56-1.16-7.94-0.82-10.02,1.25l-36.01,36.01c-0.1,0.1-0.24,0.15-0.38,0.14c-4.43-0.33-8.85-0.72-13.28-1.15
				c-0.25-0.02-0.44-0.24-0.44-0.49c0-0.12,0-0.25,0-0.38c0-8.25-6.69-14.94-14.94-14.94c-5.36,0-10.07,2.83-12.7,7.08
				c-0.09,0.14-0.24,0.23-0.41,0.23h-1.97c-2.25,0-4.08-1.82-4.08-4.08v-67.77c0-0.39,0.45-0.62,0.77-0.39
				c14.46,10.47,32.8,16.39,51.26,16.2c3.24-0.03,6.37-0.3,9.4-0.56c4.07-0.35,7.91-0.68,11.67-0.43c17.97,1.19,36.07,6,53.09,11.21
				c0.07,0.02,0.13,0.06,0.18,0.1C185.68,394.49,199.93,410.43,211.81,427.53z"/>
			<path class="st2" d="M208.36,392.81c0.44-0.01,0.67,0.5,0.36,0.82c0,0-0.01,0.01-0.01,0.01c-0.2,0.21-0.53,0.19-0.71-0.03
				c0,0-0.01-0.01-0.01-0.01c-0.26-0.31-0.05-0.78,0.35-0.79C208.35,392.81,208.35,392.81,208.36,392.81z"/>
			<path class="st2" d="M295.19,354.82c0.29-0.34,0.85-0.13,0.85,0.32l-0.75,72.41c-0.02,2.23-1.84,4.03-4.08,4.03h-57.87
				c-0.17,0-0.33-0.09-0.42-0.24c-0.51-0.9-1.1-1.81-1.72-2.75c-1.3-1.98-3.17-4.77-5.43-8.07c-3.28-4.8-6.73-9.52-10.36-14.15
				c-0.16-0.21-0.13-0.5,0.07-0.67c10.6-8.86,21.95-17.42,34.11-23.66c2.95-1.51,6.15-2.56,9.54-3.68c2.53-0.83,5.14-1.69,7.76-2.78
				C277.76,371.06,287.52,363.8,295.19,354.82z"/>
		</g>
		<g>
			<path class="st1" d="M301.7,225.27v0.05l-1.1,105.14v0c-6.68,14.28-18.96,26.15-33.59,32.26c-2.22,0.93-4.53,1.69-6.96,2.49
				c-3.64,1.19-7.41,2.43-11.12,4.34c-12.6,6.47-24.2,15.1-34.98,24.05c-0.01,0.01-0.03,0.02-0.04,0.03
				c-0.36,0.31-0.91-0.03-0.78-0.49l11.19-41.75c0.05-0.18,0.2-0.31,0.38-0.35c1.57-0.31,3.06-1.13,4.2-2.42
				c19.79-22.45,30.6-50.97,30.6-81.17c0-5.1-0.31-10.14-0.93-15.13c-0.02-0.13,0.02-0.27,0.11-0.37
				c5.27-6.35,10.36-11.7,15.47-16.24c2.48-2.2,5.32-4.02,8.32-5.95c2.24-1.43,4.56-2.92,6.82-4.63c4.1-3.1,7.88-6.68,11.28-10.63
				c0.29-0.34,0.84-0.14,0.85,0.3L301.7,225.27z"/>
			<path class="st0" d="M284.12,167.79c-0.17,0-0.32-0.09-0.41-0.23c-2.62-4.33-7.37-7.21-12.79-7.21
				c-10.6,0-16.9,10.93-13.74,20.58c4.24,12.97,23.37,11.75,27.81-0.59c0.07-0.19,0.25-0.32,0.45-0.32h8.41
				c2.19,0,3.96,1.79,3.93,3.97l-0.03,3.13c0,0.07-0.02,0.14-0.05,0.21c-4.47,9.34-11.15,17.67-19.26,23.81
				c-1.92,1.46-3.97,2.76-6.12,4.15c-3.23,2.07-6.56,4.2-9.68,6.98c-3.43,3.05-6.84,6.42-10.28,10.16
				c-0.26,0.29-0.73,0.17-0.83-0.21c-7.33-29.31-25.31-55.23-51.11-72.45c-20.02-13.36-46.67-11.68-64.8,4.1
				c-26.57,23.11-41.95,56.43-42.29,91.57c0,0.44-0.53,0.64-0.83,0.33c-2.8-2.94-5.58-5.64-8.39-8.13
				c-3.11-2.77-6.45-4.91-9.68-6.97c-2.16-1.39-4.2-2.69-6.13-4.15c-2.76-2.09-5.39-4.37-7.84-6.82c-2.45-2.45-4.73-5.08-6.79-7.87
				c-2.05-2.77-3.88-5.71-5.45-8.78c-1.57-3.07-2.86-6.28-3.85-9.59c-0.49-1.63-0.94-3.31-1.23-5.01c-0.29-1.72-0.35-3.44-0.34-5.18
				c0.01-1.31,0.03-2.63,0.03-3.94v-7.54c0-2.57,2.08-4.65,4.65-4.65h41.3c4.22,0,7.64-3.42,7.64-7.64v0c0-4.22-3.42-7.64-7.64-7.64
				H32.23c-2.57,0-4.65,2.08-4.65,4.65v270.26c0,0.27,0.22,0.48,0.48,0.48h20.85c0.17,0,0.32,0.09,0.41,0.23
				c2.64,4.24,7.34,7.06,12.7,7.06c7.98,0,14.5-6.25,14.92-14.12c0.17-3.19,0.03-7.09-1.89-9.79c-1.78-2.51-5.23-4.25-8.09-5.17
				c-2.85-0.92-5.94-1.06-8.84-0.28c-3.63,0.98-6.82,3.36-8.8,6.56c-0.09,0.14-0.24,0.23-0.41,0.23h-1.97
				c-2.25,0-4.08-1.82-4.08-4.08l0-67.77c0-0.39,0.45-0.62,0.77-0.39c14.46,10.47,32.8,16.39,51.26,16.2
				c3.24-0.03,6.37-0.3,9.4-0.56c4.07-0.35,7.91-0.68,11.67-0.43c17.97,1.19,36.07,6,53.09,11.21c0.07,0.02,0.13,0.06,0.18,0.1
				c16.45,14.6,30.7,30.54,42.58,47.64c0.22,0.32-0.01,0.76-0.4,0.76h-90.48c-0.43,0-0.65-0.52-0.34-0.82l17.41-17.42
				c1.51-1.51,2.27-3.49,2.27-5.48c0-4.24-3.45-8.47-10.39-8.13c-0.12,0.01-0.24,0.06-0.32,0.14l-39.64,39.64
				c-2.79,2.79-0.81,7.56,3.13,7.56H303.3c2.23,0,4.05-1.8,4.07-4.03c0,0,2.61-250.23,2.61-250.24c0,0,0.04-3.36,0.04-3.36
				l0.11-10.73c0.02-2.19-1.74-3.97-3.93-3.97H284.12z M117.26,353.04c-4.73-0.31-9.25,0.07-13.62,0.44
				c-2.92,0.25-5.69,0.48-8.43,0.51c-5.96,0.06-11.91-0.63-17.67-1.98c-7.9-1.86-15.44-4.98-22.19-9.18
				c-4.53-2.82-8.69-6.13-12.36-9.87c-0.09-0.09-0.14-0.21-0.14-0.34l0-106.88c0-0.48,0.63-0.67,0.89-0.26
				c4.8,7.56,10.91,14.27,18.02,19.66c2.26,1.71,4.58,3.2,6.82,4.63c3,1.92,5.84,3.74,8.32,5.95c5.82,5.18,11.58,11.34,17.7,18.98
				c0.05,0.07,0.09,0.15,0.1,0.23c4.92,32.48,22.77,62.1,49.83,81.57c0.37,0.27,0.74,0.54,1.12,0.81
				C136.33,355.23,126.84,353.67,117.26,353.04z M295.28,423.86c-0.02,2.23-1.84,4.03-4.08,4.03h-57.87c-0.17,0-0.33-0.09-0.42-0.24
				c-0.51-0.9-1.1-1.81-1.72-2.75c-1.3-1.98-3.17-4.77-5.43-8.07c-3.28-4.8-6.73-9.52-10.36-14.15c-0.16-0.21-0.13-0.5,0.07-0.67
				c10.6-8.86,21.95-17.42,34.11-23.66c2.95-1.51,6.15-2.56,9.54-3.68c2.53-0.83,5.14-1.69,7.76-2.78
				c10.86-4.53,20.62-11.79,28.29-20.77c0.29-0.34,0.85-0.13,0.85,0.32L295.28,423.86z M297.41,219.9v0.05l-1.1,105.14v0l-0.05,4.52
				c0,0.07-0.02,0.14-0.05,0.21c-6.7,14.19-18.93,25.98-33.5,32.06c-2.23,0.93-4.53,1.68-6.97,2.48c-3.64,1.19-7.41,2.43-11.12,4.34
				c-12.58,6.45-24.15,15.06-34.91,23.99h0c-0.03,0.02-0.05,0.04-0.07,0.06c-0.34,0.28-0.65,0.58-0.94,0.88
				c-0.2,0.21-0.53,0.19-0.71-0.02c-0.23-0.27-0.47-0.55-0.7-0.82c-10.2-11.86-21.57-23.07-34.04-33.56
				c-6.28-5.29-12.84-10.39-19.67-15.31c-28.03-20.17-44.77-52.8-44.77-87.28c0-20.38,5.79-40.1,16.39-57.02c0,0,0,0,0.01-0.01
				c5.57-8.9,12.48-17.03,20.58-24.07c12.88-11.2,31.81-12.39,46.04-2.9c29.99,20.02,47.88,53.46,47.88,89.45
				c0,26.02-9.19,50.63-26.03,70.12l0,0c-0.75,1.33-1.52,2.67-2.33,4.02c-0.03,0.05-0.05,0.1-0.06,0.15
				c-0.54,2.43,0.12,5.04,1.99,6.92l0.32,0.32c1.78,1.78,4.2,2.47,6.5,2.11c1.68-0.26,3.28-1.1,4.5-2.48
				c19.79-22.45,30.6-50.97,30.6-81.17c0-5.1-0.31-10.14-0.93-15.13c-0.02-0.13,0.02-0.27,0.11-0.37
				c5.27-6.35,10.36-11.7,15.47-16.24c2.48-2.2,5.32-4.02,8.32-5.95c2.24-1.43,4.56-2.92,6.82-4.63c4.43-3.35,8.49-7.26,12.1-11.59
				c0.15-0.18,0.3-0.36,0.45-0.55L297.41,219.9z"/>
		</g>
		<g>
			<g>
				<path class="st0" d="M309.99,185.85l0.04-3.36C310.23,183.58,310.23,184.72,309.99,185.85z"/>
			</g>
		</g>
		<g>
			<path class="st3" d="M213.68,332.2L213.68,332.2c-0.77,1.36-1.55,2.72-2.37,4.09c-0.61,1.03-1.24,2.07-1.88,3.12
				c-0.06,0.09-0.12,0.19-0.18,0.29c-7.68,12.27-21.42,19.33-35.81,19.53c-0.12,0-0.23-0.04-0.32-0.11
				c-6.24-5.25-12.75-10.31-19.53-15.19c-28.03-20.17-44.77-52.8-44.77-87.28c0-20.38,5.79-40.1,16.39-57.02c0,0,0,0,0.01-0.01
				c5.1-5.77,11.19-11.48,18.4-17.11c7.37-5.75,17.41-6.78,25.79-2.65C199.88,194.87,265.25,240.83,213.68,332.2z"/>
		</g>
		<g>
			<g>
				<circle class="st0" cx="160.55" cy="205.98" r="12.85"/>
			</g>
			<g>
				<g>
					<path class="st0" d="M213.68,332.21c-0.76,1.35-1.55,2.71-2.37,4.09c0.28-1.21,0.86-2.37,1.73-3.36
						C213.26,332.69,213.47,332.45,213.68,332.21z"/>
				</g>
			</g>
		</g>
		<g>
			<path class="st4" d="M218.61,429.57"/>
		</g>
	</g>
</g>
</svg>
