<?xml version="1.0" encoding="utf-8"?>
<!-- Generator: Adobe Illustrator 26.1.0, SVG Export Plug-In . SVG Version: 6.00 Build 0)  -->
<svg version="1.1" id="Camada_1" xmlns="http://www.w3.org/2000/svg" xmlns:xlink="http://www.w3.org/1999/xlink" x="0px" y="0px"
	 viewBox="0 0 841.89 595.28" style="enable-background:new 0 0 841.89 595.28;" xml:space="preserve">
<style type="text/css">
	.st0{fill:#052526;}
	.st1{fill:#A6CA5C;}
	.st2{fill:#14A6C7;}
	.st3{fill:#A66640;}
	.st4{fill:none;stroke:#052526;stroke-width:5;stroke-miterlimit:10;}
</style>
<g>
	<g>
		<g>
			<path class="st0" d="M151.91,528.99c-2.47-0.41-3.5-2.06-3.3-4.74l1.85-24.1c0.21-2.68,2.06-4.12,4.74-3.5
				c4.53,1.03,9.89,1.85,16.06,1.85c7,0,15.86-1.24,15.86-9.27c0-5.77-2.27-8.65-16.27-22.65c-15.65-15.65-21.42-26.36-21.21-44.9
				c0.41-28.42,16.68-38.51,44.48-38.1c7.83,0.21,15.65,1.03,23.07,2.68c2.47,0.62,3.5,2.06,3.3,4.74l-1.85,22.86
				c-0.21,2.68-2.06,4.12-4.74,3.5c-3.91-0.82-7.83-1.44-10.91-1.44c-5.56,0-14.62,0.82-14.62,9.47c0,5.77-0.21,8.65,17.51,26.36
				c13.8,13.8,20.59,22.65,20.59,38.31c0,32.95-18.54,41.81-43.45,41.81C172.51,531.87,160.97,530.84,151.91,528.99z"/>
			<path class="st0" d="M246.65,529.81c-2.62,0-4.48-1.92-4.2-4.47c2.95-26.83,12.9-91.25,21.68-136.49c0.37-1.94,1.92-3.2,3.89-3.2
				h49.96c1.96,0,3.49,1.25,3.88,3.17c8.87,44.44,18.34,109.38,21.09,136.58c0.26,2.52-1.6,4.42-4.19,4.42h-29.13
				c-2.32,0-4.03-1.63-4.21-3.92c-0.6-7.49-1.33-15.49-2.18-23.79c-0.06-0.54-0.47-0.92-1.01-0.92h-19c-0.54,0-0.95,0.37-1.01,0.91
				c-0.9,8.31-1.68,16.3-2.28,23.8c-0.18,2.3-1.89,3.92-4.21,3.92L246.65,529.81L246.65,529.81z M298.19,468.03
				c0.69,0,1.17-0.54,1.08-1.23c-1.79-14.78-3.74-29.7-5.67-43.88c0-0.21-1.24-0.21-1.24,0c-1.93,14.16-3.98,29.09-5.89,43.86
				c-0.09,0.7,0.39,1.24,1.09,1.24H298.19z"/>
			<path class="st0" d="M364.24,525.69V389.77c0-2.68,1.44-4.12,4.12-4.12h38.31c15.45,0,27.18,2.47,35.63,9.68
				c11.33,9.89,16.68,28.63,16.68,62.4c0,30.89-4.53,49.22-13.8,59.72c-8.65,9.47-21.42,12.36-38.51,12.36h-38.31
				C365.68,529.81,364.24,528.37,364.24,525.69z M401.93,496.45h4.74c4.94,0,8.03-1.85,10.3-5.35c3.91-6.59,4.53-18.54,4.53-33.36
				c0-16.27-0.71-28.56-5.35-34.6c-2.06-2.68-5.15-4.12-9.47-4.12h-4.74c-0.62,0-1.03,0.41-1.03,1.03v75.38
				C400.9,496.03,401.31,496.45,401.93,496.45z"/>
			<path class="st0" d="M478.13,529.81c-2.62,0-4.48-1.92-4.2-4.47c2.95-26.83,12.9-91.25,21.68-136.49c0.37-1.94,1.92-3.2,3.89-3.2
				h49.96c1.96,0,3.49,1.25,3.88,3.17c8.87,44.44,18.34,109.38,21.09,136.58c0.26,2.52-1.6,4.42-4.19,4.42h-29.13
				c-2.32,0-4.03-1.63-4.21-3.92c-0.6-7.49-1.33-15.49-2.18-23.79c-0.06-0.54-0.47-0.92-1.01-0.92h-19c-0.54,0-0.95,0.37-1.01,0.91
				c-0.9,8.31-1.68,16.3-2.28,23.8c-0.18,2.3-1.89,3.92-4.21,3.92L478.13,529.81L478.13,529.81z M529.67,468.03
				c0.69,0,1.17-0.54,1.08-1.23c-1.79-14.78-3.74-29.7-5.67-43.88c0-0.21-1.24-0.21-1.24,0c-1.93,14.16-3.98,29.09-5.89,43.86
				c-0.09,0.7,0.39,1.24,1.09,1.24H529.67z"/>
			<path class="st0" d="M688.4,437.34c0,37.48-10.09,50.46-52.31,50.46h-1.85c-0.62,0-1.03,0.41-1.03,1.03v36.86
				c0,2.68-1.44,4.12-4.12,4.12h-29.24c-2.68,0-4.12-1.44-4.12-4.12V389.77c0-2.68,1.44-4.12,4.12-4.12h36.25
				C678.31,385.65,688.4,396.77,688.4,437.34z M650.92,437.34c0-17.09-3.09-19.15-14.42-19.15h-2.27c-0.62,0-1.03,0.41-1.03,1.03
				v35.22c0,0.62,0.41,1.03,1.03,1.03h2.27C647.21,455.46,650.92,453.4,650.92,437.34z"/>
		</g>
		<g>
			<path class="st0" d="M150.62,568.33l0.53-2.45c1.62,0.89,3.19,1.34,4.72,1.34c2.55,0,3.82-1.22,3.82-3.65
				c0-0.61-0.09-1.14-0.28-1.6c-0.18-0.46-0.49-0.85-0.91-1.19c-0.42-0.34-0.81-0.6-1.16-0.8c-0.35-0.2-0.86-0.43-1.53-0.72
				c-1.72-0.76-3-1.58-3.82-2.45c-0.83-0.87-1.24-2.1-1.24-3.69c0-2.15,0.56-3.69,1.69-4.62c1.12-0.92,2.56-1.39,4.32-1.39
				c1.32,0,2.78,0.25,4.4,0.75l-0.47,2.28c-1.49-0.5-2.8-0.75-3.93-0.75c-2.37,0-3.56,1.1-3.56,3.29c0,1.09,0.32,1.92,0.95,2.5
				c0.63,0.58,1.58,1.14,2.85,1.68c1.76,0.78,3.05,1.64,3.89,2.56c0.83,0.92,1.25,2.19,1.25,3.8c0,2.2-0.61,3.82-1.84,4.88
				c-1.23,1.05-2.77,1.58-4.61,1.58C153.92,569.7,152.23,569.24,150.62,568.33z"/>
			<path class="st0" d="M167.56,547.49v21.79h-2.32v-21.79H167.56z"/>
			<path class="st0" d="M170.67,568.33l0.53-2.45c1.62,0.89,3.19,1.34,4.72,1.34c2.55,0,3.82-1.22,3.82-3.65
				c0-0.61-0.09-1.14-0.28-1.6c-0.18-0.46-0.49-0.85-0.91-1.19c-0.42-0.34-0.81-0.6-1.16-0.8c-0.35-0.2-0.86-0.43-1.53-0.72
				c-1.72-0.76-3-1.58-3.82-2.45c-0.83-0.87-1.24-2.1-1.24-3.69c0-2.15,0.56-3.69,1.69-4.62c1.12-0.92,2.56-1.39,4.32-1.39
				c1.32,0,2.78,0.25,4.4,0.75l-0.47,2.28c-1.49-0.5-2.8-0.75-3.93-0.75c-2.37,0-3.56,1.1-3.56,3.29c0,1.09,0.32,1.92,0.95,2.5
				c0.63,0.58,1.58,1.14,2.85,1.68c1.76,0.78,3.05,1.64,3.89,2.56c0.83,0.92,1.25,2.19,1.25,3.8c0,2.2-0.61,3.82-1.84,4.88
				c-1.23,1.05-2.77,1.58-4.61,1.58C173.97,569.7,172.29,569.24,170.67,568.33z"/>
			<path class="st0" d="M183.69,549.9v-2.41h12.57v2.41h-5.14v19.38h-2.27V549.9H183.69z"/>
			<path class="st0" d="M209.46,566.86v2.41h-10.65v-21.79h10.36v2.41h-8.04v6.95h7.62v2.41h-7.62v7.6H209.46z"/>
			<path class="st0" d="M216.28,547.49l5.54,15.75l5.48-15.75h2.63l0.79,21.79h-2.32l-0.53-17.58l-5.25,14.35l-1.98-0.02
				l-5.26-14.47l-0.53,17.72h-2.32l0.79-21.79H216.28z"/>
			<path class="st0" d="M236.69,563.57l-1.62,5.71h-2.42l6.4-21.79h2.71l6.4,21.79h-2.42l-1.66-5.71H236.69z M240.39,550.5
				l-3.03,10.69h6.05L240.39,550.5z"/>
			<path class="st0" d="M256.95,563.57l-1.62,5.71h-2.42l6.4-21.79h2.71l6.4,21.79H266l-1.66-5.71H256.95z M260.65,550.5
				l-3.03,10.69h6.05L260.65,550.5z"/>
			<path class="st0" d="M269.8,558.35c0-2.13,0.23-3.97,0.69-5.51c0.46-1.54,1.08-2.72,1.87-3.52c0.79-0.8,1.63-1.39,2.53-1.75
				c0.9-0.36,1.87-0.54,2.92-0.54c1.6,0,3.14,0.25,4.61,0.75l-0.45,2.38c-1.26-0.46-2.67-0.69-4.22-0.69
				c-0.74,0-1.41,0.14-2.03,0.42c-0.62,0.28-1.19,0.75-1.73,1.39c-0.54,0.64-0.96,1.55-1.26,2.72s-0.46,2.58-0.46,4.21
				c0,6.02,1.98,9.04,5.95,9.04c0.86,0,1.74-0.13,2.64-0.39v-7.76h2.16v9.49c-1.84,0.74-3.53,1.11-5.06,1.11
				c-1.14,0-2.19-0.2-3.14-0.59c-0.95-0.39-1.81-1.01-2.58-1.86c-0.77-0.85-1.37-2.03-1.8-3.54
				C270.01,562.2,269.8,560.42,269.8,558.35z"/>
			<path class="st0" d="M296.36,569.28l-4.82-8.45h-0.37c-0.84,0-1.61-0.08-2.29-0.23v8.68h-2.35v-21.56
				c1.63-0.3,3.14-0.46,4.51-0.46c0.79,0,1.5,0.04,2.12,0.13c0.62,0.09,1.26,0.27,1.91,0.54c0.65,0.27,1.19,0.64,1.62,1.09
				c0.43,0.46,0.78,1.09,1.05,1.91c0.27,0.82,0.41,1.77,0.41,2.85c0,3.52-1.38,5.73-4.14,6.62l5.16,8.87H296.36z M288.88,549.71
				v8.61c0.83,0.2,1.61,0.29,2.35,0.29c1.3,0,2.38-0.36,3.25-1.09c0.87-0.73,1.3-1.92,1.3-3.57c0-0.93-0.13-1.71-0.38-2.33
				c-0.25-0.62-0.62-1.07-1.09-1.35c-0.47-0.28-0.96-0.48-1.46-0.59c-0.5-0.11-1.1-0.16-1.81-0.16
				C290.3,549.51,289.58,549.58,288.88,549.71z"/>
			<path class="st0" d="M306.56,542.24l-4.53,3.39l-0.95-1.79l4.22-3.98L306.56,542.24z M303.68,547.49v21.79h-2.32v-21.79H303.68z"
				/>
			<path class="st0" d="M310.38,558.22c0,3.39,0.46,5.76,1.38,7.11c0.92,1.35,2.3,2.02,4.12,2.02c0.98,0,2.29-0.17,3.93-0.52
				l0.24,2.28c-1.39,0.41-2.86,0.62-4.4,0.62c-2.71,0-4.67-1.04-5.9-3.12c-1.23-2.08-1.84-4.87-1.84-8.37
				c0-1.72,0.15-3.24,0.44-4.57c0.29-1.33,0.67-2.4,1.15-3.23c0.47-0.83,1.05-1.5,1.73-2.02c0.68-0.52,1.37-0.89,2.08-1.09
				c0.71-0.21,1.47-0.31,2.28-0.31c1.67,0,3.2,0.28,4.58,0.85l-0.39,2.22c-1.34-0.48-2.71-0.72-4.11-0.72
				c-1.65,0-2.94,0.67-3.87,2.01C310.84,552.72,310.38,555,310.38,558.22z"/>
			<path class="st0" d="M329.38,547.03c1.16,0,2.17,0.2,3.04,0.6c0.87,0.4,1.57,0.94,2.09,1.61c0.53,0.67,0.96,1.51,1.29,2.51
				c0.33,1,0.56,2.03,0.69,3.08c0.12,1.05,0.18,2.23,0.18,3.54c0,1.28-0.06,2.45-0.18,3.51c-0.12,1.06-0.36,2.08-0.7,3.08
				c-0.34,1-0.78,1.84-1.32,2.51c-0.54,0.67-1.24,1.22-2.12,1.63c-0.88,0.41-1.9,0.62-3.06,0.62c-1.19,0-2.24-0.21-3.12-0.62
				c-0.89-0.41-1.59-0.95-2.12-1.6c-0.53-0.65-0.94-1.49-1.25-2.51c-0.31-1.02-0.51-2.05-0.62-3.08c-0.11-1.03-0.16-2.21-0.16-3.54
				c0-1.63,0.11-3.08,0.33-4.35c0.22-1.27,0.59-2.46,1.12-3.56c0.53-1.1,1.29-1.95,2.28-2.54
				C326.75,547.33,327.95,547.03,329.38,547.03z M329.35,567.48c0.79,0,1.48-0.16,2.07-0.47c0.59-0.32,1.06-0.73,1.42-1.26
				c0.36-0.52,0.65-1.18,0.88-1.97c0.23-0.79,0.38-1.62,0.46-2.48c0.08-0.86,0.12-1.83,0.12-2.92c0-1.39-0.07-2.6-0.21-3.64
				c-0.14-1.03-0.39-1.98-0.74-2.85c-0.35-0.87-0.86-1.53-1.53-1.99c-0.67-0.46-1.49-0.68-2.48-0.68c-0.98,0-1.81,0.23-2.48,0.68
				c-0.67,0.46-1.18,1.12-1.54,1.99c-0.36,0.87-0.61,1.82-0.75,2.85c-0.14,1.03-0.21,2.25-0.21,3.64c0,1.37,0.07,2.57,0.21,3.6
				c0.14,1.03,0.39,1.98,0.74,2.84c0.35,0.86,0.86,1.52,1.54,1.97C327.54,567.25,328.37,567.48,329.35,567.48z"/>
			<path class="st0" d="M349.88,566.86v2.41h-9.78v-21.79h2.32v19.38H349.88z"/>
			<path class="st0" d="M354.66,563.57l-1.62,5.71h-2.42l6.4-21.79h2.71l6.4,21.79h-2.42l-1.66-5.71H354.66z M358.36,550.5
				l-3.03,10.69h6.05L358.36,550.5z"/>
			<path class="st0" d="M373.35,569.08v-21.4c1.91-0.28,3.54-0.42,4.87-0.42c1.42,0,2.64,0.17,3.66,0.52
				c1.02,0.35,1.92,0.94,2.7,1.76c0.78,0.83,1.37,1.98,1.77,3.46c0.4,1.48,0.59,3.28,0.59,5.41c0,1.74-0.16,3.27-0.47,4.58
				c-0.32,1.32-0.74,2.39-1.26,3.21c-0.53,0.83-1.18,1.5-1.95,2.02c-0.77,0.52-1.58,0.89-2.41,1.09c-0.83,0.21-1.76,0.31-2.78,0.31
				C376.98,569.64,375.41,569.45,373.35,569.08z M375.7,549.74v17.16c0.84,0.2,1.66,0.29,2.45,0.29c1.93,0,3.47-0.7,4.6-2.1
				c1.13-1.4,1.7-3.64,1.7-6.7c0-3.02-0.51-5.25-1.52-6.69c-1.01-1.44-2.56-2.15-4.65-2.15
				C377.47,549.54,376.61,549.61,375.7,549.74z"/>
			<path class="st0" d="M401.07,566.86v2.41h-10.65v-21.79h10.36v2.41h-8.04v6.95h7.62v2.41h-7.62v7.6H401.07z"/>
			<path class="st0" d="M411.62,563.57l-1.62,5.71h-2.42l6.4-21.79h2.71l6.4,21.79h-2.42l-1.66-5.71H411.62z M415.33,550.5
				l-3.03,10.69h6.05L415.33,550.5z"/>
			<path class="st0" d="M438.12,561.35c0,2.87-0.51,4.98-1.53,6.33c-1.02,1.35-2.68,2.03-4.98,2.05c-2.21,0-3.85-0.68-4.9-2.04
				c-1.05-1.36-1.58-3.47-1.58-6.34v-13.86h2.32v13.37c0,2.2,0.29,3.82,0.88,4.86c0.59,1.04,1.7,1.57,3.33,1.57
				c1.56,0,2.65-0.49,3.25-1.48c0.61-0.99,0.91-2.64,0.91-4.94v-13.37h2.29V561.35z"/>
			<path class="st0" d="M440.57,549.9v-2.41h12.57v2.41H448v19.38h-2.27V549.9H440.57z"/>
			<path class="st0" d="M461.89,547.03c1.16,0,2.17,0.2,3.04,0.6c0.87,0.4,1.57,0.94,2.09,1.61c0.53,0.67,0.96,1.51,1.29,2.51
				c0.33,1,0.56,2.03,0.69,3.08c0.12,1.05,0.18,2.23,0.18,3.54c0,1.28-0.06,2.45-0.18,3.51c-0.12,1.06-0.36,2.08-0.7,3.08
				c-0.34,1-0.78,1.84-1.32,2.51c-0.54,0.67-1.24,1.22-2.12,1.63c-0.88,0.41-1.9,0.62-3.06,0.62c-1.19,0-2.24-0.21-3.12-0.62
				c-0.89-0.41-1.59-0.95-2.12-1.6c-0.53-0.65-0.94-1.49-1.25-2.51c-0.31-1.02-0.51-2.05-0.62-3.08c-0.11-1.03-0.16-2.21-0.16-3.54
				c0-1.63,0.11-3.08,0.33-4.35c0.22-1.27,0.59-2.46,1.12-3.56c0.53-1.1,1.29-1.95,2.28-2.54
				C459.26,547.33,460.47,547.03,461.89,547.03z M461.86,567.48c0.79,0,1.48-0.16,2.07-0.47c0.59-0.32,1.06-0.73,1.42-1.26
				c0.36-0.52,0.65-1.18,0.88-1.97c0.23-0.79,0.38-1.62,0.46-2.48c0.08-0.86,0.12-1.83,0.12-2.92c0-1.39-0.07-2.6-0.21-3.64
				c-0.14-1.03-0.39-1.98-0.74-2.85c-0.35-0.87-0.86-1.53-1.53-1.99c-0.67-0.46-1.49-0.68-2.48-0.68c-0.98,0-1.81,0.23-2.48,0.68
				c-0.67,0.46-1.18,1.12-1.54,1.99c-0.36,0.87-0.61,1.82-0.75,2.85c-0.14,1.03-0.21,2.25-0.21,3.64c0,1.37,0.07,2.57,0.21,3.6
				c0.14,1.03,0.39,1.98,0.74,2.84c0.35,0.86,0.86,1.52,1.54,1.97C460.05,567.25,460.88,567.48,461.86,567.48z"/>
			<path class="st0" d="M475.99,547.49l5.54,15.75l5.48-15.75h2.63l0.79,21.79h-2.32l-0.53-17.58l-5.25,14.35l-1.98-0.02
				l-5.26-14.47l-0.53,17.72h-2.32l0.79-21.79H475.99z"/>
			<path class="st0" d="M496.39,563.57l-1.62,5.71h-2.42l6.4-21.79h2.71l6.4,21.79h-2.42l-1.66-5.71H496.39z M500.09,550.5
				l-3.03,10.69h6.05L500.09,550.5z"/>
			<path class="st0" d="M511.74,558.22c0,3.39,0.46,5.76,1.38,7.11c0.92,1.35,2.3,2.02,4.12,2.02c0.98,0,2.29-0.17,3.93-0.52
				l0.24,2.28c-1.39,0.41-2.86,0.62-4.4,0.62c-2.71,0-4.67-1.04-5.9-3.12c-1.23-2.08-1.84-4.87-1.84-8.37
				c0-1.72,0.15-3.24,0.44-4.57c0.29-1.33,0.67-2.4,1.15-3.23c0.47-0.83,1.05-1.5,1.73-2.02c0.68-0.52,1.37-0.89,2.08-1.09
				c0.71-0.21,1.47-0.31,2.28-0.31c1.67,0,3.2,0.28,4.58,0.85l-0.39,2.22c-1.34-0.48-2.71-0.72-4.11-0.72
				c-1.65,0-2.94,0.67-3.87,2.01C512.21,552.72,511.74,555,511.74,558.22z M518.07,570.88c0.28,0.74,0.42,1.44,0.42,2.09
				c0,1.72-0.93,3.26-2.79,4.63l-1.08-1.57c1.23-1.07,1.84-2.14,1.84-3.23c0-0.54-0.16-1.19-0.47-1.92H518.07z"/>
			<path class="st0" d="M526.93,563.57l-1.62,5.71h-2.42l6.4-21.79h2.71l6.4,21.79h-2.42l-1.65-5.71H526.93z M527.39,545.27
				l-1.16-1.21c0.33-0.65,0.73-1.2,1.19-1.65c0.46-0.45,0.91-0.67,1.37-0.67c0.39,0,0.99,0.23,1.8,0.7c0.82,0.47,1.4,0.7,1.75,0.7
				c0.33,0,0.83-0.46,1.48-1.37l1.13,1.17c-0.35,0.74-0.79,1.34-1.32,1.81c-0.53,0.47-1.03,0.7-1.5,0.7c-0.4,0-0.99-0.23-1.77-0.7
				c-0.77-0.47-1.33-0.7-1.66-0.7C528.38,544.06,527.94,544.47,527.39,545.27z M530.64,550.5l-3.03,10.69h6.05L530.64,550.5z"/>
			<path class="st0" d="M547,547.03c1.16,0,2.17,0.2,3.04,0.6c0.87,0.4,1.57,0.94,2.09,1.61s0.96,1.51,1.29,2.51
				c0.33,1,0.56,2.03,0.69,3.08c0.12,1.05,0.18,2.23,0.18,3.54c0,1.28-0.06,2.45-0.18,3.51c-0.12,1.06-0.36,2.08-0.7,3.08
				c-0.34,1-0.78,1.84-1.32,2.51c-0.54,0.67-1.24,1.22-2.12,1.63c-0.88,0.41-1.9,0.62-3.06,0.62c-1.19,0-2.24-0.21-3.12-0.62
				c-0.89-0.41-1.59-0.95-2.12-1.6c-0.53-0.65-0.94-1.49-1.25-2.51c-0.31-1.02-0.51-2.05-0.62-3.08c-0.11-1.03-0.16-2.21-0.16-3.54
				c0-1.63,0.11-3.08,0.33-4.35c0.22-1.27,0.59-2.46,1.12-3.56c0.53-1.1,1.29-1.95,2.28-2.54
				C544.37,547.33,545.58,547.03,547,547.03z M546.97,567.48c0.79,0,1.48-0.16,2.07-0.47c0.59-0.32,1.06-0.73,1.42-1.26
				c0.36-0.52,0.65-1.18,0.88-1.97c0.23-0.79,0.38-1.62,0.46-2.48c0.08-0.86,0.12-1.83,0.12-2.92c0-1.39-0.07-2.6-0.21-3.64
				c-0.14-1.03-0.39-1.98-0.74-2.85c-0.35-0.87-0.86-1.53-1.53-1.99c-0.67-0.46-1.49-0.68-2.48-0.68c-0.98,0-1.81,0.23-2.48,0.68
				s-1.18,1.12-1.54,1.99c-0.36,0.87-0.61,1.82-0.75,2.85c-0.14,1.03-0.21,2.25-0.21,3.64c0,1.37,0.07,2.57,0.21,3.6
				c0.14,1.03,0.39,1.98,0.74,2.84c0.35,0.86,0.86,1.52,1.54,1.97C545.16,567.25,545.99,567.48,546.97,567.48z"/>
			<path class="st0" d="M563.26,547.75c1.39-0.33,2.94-0.49,4.66-0.49c0.79,0,1.5,0.04,2.12,0.13c0.62,0.09,1.26,0.27,1.91,0.54
				c0.65,0.27,1.19,0.64,1.62,1.11c0.43,0.47,0.78,1.1,1.05,1.91c0.27,0.8,0.41,1.76,0.41,2.87c0,1.28-0.19,2.4-0.58,3.34
				c-0.39,0.95-0.92,1.67-1.61,2.17c-0.69,0.5-1.42,0.86-2.2,1.09c-0.78,0.23-1.65,0.34-2.6,0.34c-0.86,0-1.68-0.1-2.45-0.29v8.81
				h-2.35V547.75z M565.6,549.71v8.55c0.74,0.17,1.51,0.26,2.32,0.26c3.16,0,4.74-1.51,4.74-4.53c0-0.93-0.13-1.72-0.38-2.35
				c-0.25-0.63-0.62-1.09-1.09-1.39c-0.47-0.29-0.97-0.49-1.48-0.6c-0.51-0.11-1.11-0.16-1.79-0.16
				C566.96,549.48,566.18,549.55,565.6,549.71z"/>
			<path class="st0" d="M587.74,569.28l-4.82-8.45h-0.37c-0.84,0-1.61-0.08-2.29-0.23v8.68h-2.35v-21.56
				c1.63-0.3,3.14-0.46,4.51-0.46c0.79,0,1.5,0.04,2.12,0.13c0.62,0.09,1.26,0.27,1.91,0.54c0.65,0.27,1.19,0.64,1.62,1.09
				c0.43,0.46,0.78,1.09,1.05,1.91c0.27,0.82,0.41,1.77,0.41,2.85c0,3.52-1.38,5.73-4.14,6.62l5.16,8.87H587.74z M580.25,549.71
				v8.61c0.83,0.2,1.61,0.29,2.35,0.29c1.3,0,2.38-0.36,3.25-1.09c0.87-0.73,1.3-1.92,1.3-3.57c0-0.93-0.13-1.71-0.38-2.33
				c-0.25-0.62-0.62-1.07-1.09-1.35c-0.47-0.28-0.96-0.48-1.46-0.59c-0.5-0.11-1.1-0.16-1.81-0.16
				C581.68,549.51,580.96,549.58,580.25,549.71z"/>
			<path class="st0" d="M599.8,547.03c1.16,0,2.17,0.2,3.04,0.6c0.87,0.4,1.57,0.94,2.09,1.61s0.96,1.51,1.29,2.51
				c0.33,1,0.56,2.03,0.69,3.08c0.12,1.05,0.18,2.23,0.18,3.54c0,1.28-0.06,2.45-0.18,3.51c-0.12,1.06-0.36,2.08-0.7,3.08
				c-0.34,1-0.78,1.84-1.32,2.51s-1.24,1.22-2.12,1.63c-0.88,0.41-1.9,0.62-3.06,0.62c-1.19,0-2.24-0.21-3.12-0.62
				c-0.89-0.41-1.59-0.95-2.12-1.6c-0.53-0.65-0.94-1.49-1.25-2.51c-0.31-1.02-0.51-2.05-0.62-3.08c-0.11-1.03-0.16-2.21-0.16-3.54
				c0-1.63,0.11-3.08,0.33-4.35c0.22-1.27,0.59-2.46,1.12-3.56c0.53-1.1,1.29-1.95,2.28-2.54
				C597.17,547.33,598.38,547.03,599.8,547.03z M599.78,567.48c0.79,0,1.48-0.16,2.07-0.47c0.59-0.32,1.06-0.73,1.42-1.26
				c0.36-0.52,0.65-1.18,0.88-1.97c0.23-0.79,0.38-1.62,0.46-2.48c0.08-0.86,0.12-1.83,0.12-2.92c0-1.39-0.07-2.6-0.21-3.64
				c-0.14-1.03-0.39-1.98-0.74-2.85c-0.35-0.87-0.86-1.53-1.53-1.99c-0.67-0.46-1.49-0.68-2.48-0.68c-0.98,0-1.81,0.23-2.48,0.68
				c-0.67,0.46-1.18,1.12-1.54,1.99c-0.36,0.87-0.61,1.82-0.75,2.85c-0.14,1.03-0.21,2.25-0.21,3.64c0,1.37,0.07,2.57,0.21,3.6
				c0.14,1.03,0.39,1.98,0.74,2.84c0.35,0.86,0.86,1.52,1.54,1.97C597.96,567.25,598.79,567.48,599.78,567.48z"/>
			<path class="st0" d="M610.53,569.08v-21.4c1.91-0.28,3.54-0.42,4.87-0.42c1.42,0,2.64,0.17,3.66,0.52
				c1.02,0.35,1.92,0.94,2.7,1.76c0.78,0.83,1.37,1.98,1.77,3.46c0.4,1.48,0.59,3.28,0.59,5.41c0,1.74-0.16,3.27-0.47,4.58
				c-0.32,1.32-0.74,2.39-1.26,3.21c-0.53,0.83-1.18,1.5-1.95,2.02c-0.77,0.52-1.58,0.89-2.41,1.09c-0.83,0.21-1.76,0.31-2.78,0.31
				C614.16,569.64,612.58,569.45,610.53,569.08z M612.87,549.74v17.16c0.84,0.2,1.66,0.29,2.45,0.29c1.93,0,3.47-0.7,4.6-2.1
				c1.13-1.4,1.7-3.64,1.7-6.7c0-3.02-0.51-5.25-1.52-6.69c-1.01-1.44-2.56-2.15-4.65-2.15
				C614.65,549.54,613.79,549.61,612.87,549.74z"/>
			<path class="st0" d="M640.49,561.35c0,2.87-0.51,4.98-1.53,6.33c-1.02,1.35-2.68,2.03-4.98,2.05c-2.21,0-3.85-0.68-4.9-2.04
				c-1.05-1.36-1.58-3.47-1.58-6.34v-13.86h2.32v13.37c0,2.2,0.29,3.82,0.88,4.86c0.59,1.04,1.7,1.57,3.33,1.57
				c1.56,0,2.65-0.49,3.25-1.48c0.61-0.99,0.91-2.64,0.91-4.94v-13.37h2.29V561.35z"/>
			<path class="st0" d="M642.94,549.9v-2.41h12.57v2.41h-5.14v19.38h-2.27V549.9H642.94z"/>
			<path class="st0" d="M660.38,547.49v21.79h-2.32v-21.79H660.38z"/>
			<path class="st0" d="M675.22,547.49h2.45l-6.19,21.79h-2.58l-6.24-21.79h2.61l4.93,18.28L675.22,547.49z"/>
			<path class="st0" d="M681.42,563.57l-1.62,5.71h-2.42l6.4-21.79h2.71l6.4,21.79h-2.42l-1.66-5.71H681.42z M685.12,550.5
				l-3.03,10.69h6.05L685.12,550.5z"/>
		</g>
	</g>
	<g>
		<g>
			<path class="st1" d="M393.85,246.09c0.44,0.32,0.13,1.01-0.4,0.91c-9.21-1.73-18.37-3.4-27.76-4.02
				c-5.03-0.33-9.82,0.08-14.46,0.47c-3.11,0.27-6.04,0.51-8.96,0.54c-6.33,0.06-12.65-0.66-18.76-2.11
				c-8.39-1.97-16.4-5.29-23.56-9.75c-4.81-3-9.23-6.51-13.12-10.48c-0.09-0.1-0.15-0.23-0.15-0.36V106.27l0.28,0.21
				c5.19,8.46,11.91,15.96,19.79,21.93c2.4,1.82,4.86,3.39,7.24,4.92c12.1,7.76,22.88,17.41,27.94,31.17
				c2.64,7.17,4.12,14.7,6.49,21.96C356.1,210.04,374,231.47,393.85,246.09z"/>
		</g>
		<g>
			<path class="st2" d="M466.08,313.53c0.24,0.34-0.01,0.81-0.42,0.81c-10.08,0-94.66,0-95.48,0c-1.73,0-6.71,0.1-4.93-3.52
				c0.02-0.04,0.04-0.08,0.07-0.11c3.04-3.64,6.08-7.28,9.13-10.92c3.17-3.79,6.28-8.03,10.15-11.06c2.46-1.93,7.28-4.38,2.11-6.73
				c-2.71-1.23-8.43-0.87-10.64,1.33l-38.24,38.24c-0.11,0.11-0.25,0.16-0.4,0.15c-4.7-0.36-9.4-0.76-14.1-1.22
				c-0.27-0.03-0.47-0.25-0.46-0.52c0-0.13,0-0.27,0-0.4c0-8.76-7.1-15.87-15.87-15.87c-5.7,0-10.7,3-13.49,7.51
				c-0.09,0.15-0.26,0.24-0.43,0.24h-2.09c-2.39,0-4.33-1.94-4.33-4.33v-71.96c0-0.42,0.47-0.66,0.81-0.41
				c15.35,11.12,34.83,17.4,54.43,17.21c3.44-0.03,6.77-0.32,9.99-0.59c4.32-0.37,8.39-0.72,12.39-0.45
				c19.08,1.27,38.31,6.37,56.38,11.9c0.07,0.02,0.14,0.06,0.19,0.11C438.33,278.44,453.47,295.37,466.08,313.53z"/>
			<path class="st2" d="M462.42,276.66c0.46-0.01,0.71,0.53,0.39,0.87c0,0-0.01,0.01-0.01,0.01c-0.21,0.22-0.56,0.2-0.76-0.03
				c0,0-0.01-0.01-0.01-0.01c-0.28-0.33-0.06-0.83,0.37-0.84C462.41,276.66,462.41,276.66,462.42,276.66z"/>
			<path class="st2" d="M554.62,236.32c0.31-0.36,0.9-0.14,0.9,0.34l-0.8,76.9c-0.02,2.37-1.96,4.28-4.33,4.28h-61.45
				c-0.18,0-0.35-0.1-0.44-0.26c-0.54-0.96-1.17-1.92-1.82-2.92c-1.38-2.11-3.37-5.07-5.76-8.57c-3.48-5.1-7.15-10.11-11-15.02
				c-0.17-0.22-0.14-0.53,0.07-0.71c11.26-9.41,23.31-18.5,36.22-25.13c3.14-1.61,6.53-2.72,10.13-3.9
				c2.68-0.88,5.46-1.79,8.24-2.95C536.11,253.56,546.48,245.85,554.62,236.32z"/>
		</g>
		<g>
			<path class="st1" d="M561.54,98.75v0.06l-1.17,111.64v0c-7.09,15.16-20.13,27.77-35.67,34.26c-2.36,0.99-4.81,1.79-7.39,2.64
				c-3.87,1.27-7.86,2.58-11.8,4.61c-13.38,6.87-25.7,16.04-37.15,25.53c-0.01,0.01-0.03,0.02-0.04,0.03
				c-0.39,0.33-0.96-0.03-0.83-0.52l11.88-44.33c0.05-0.19,0.21-0.33,0.4-0.37c1.66-0.33,3.24-1.2,4.46-2.57
				c21.02-23.84,32.49-54.13,32.49-86.19c0-5.41-0.33-10.77-0.99-16.06c-0.02-0.14,0.02-0.28,0.11-0.39
				c5.6-6.75,11.01-12.42,16.42-17.25c2.63-2.34,5.65-4.27,8.84-6.31c2.38-1.52,4.84-3.1,7.24-4.92c4.35-3.3,8.37-7.09,11.98-11.29
				c0.31-0.36,0.89-0.15,0.9,0.32L561.54,98.75z"/>
			<path class="st0" d="M542.87,37.71c-0.18,0-0.34-0.1-0.44-0.25c-2.78-4.59-7.82-7.66-13.58-7.66
				c-11.26,0-17.95,11.61-14.59,21.86c4.51,13.77,24.81,12.48,29.53-0.62c0.07-0.2,0.26-0.34,0.48-0.34h8.93
				c2.32,0,4.2,1.9,4.18,4.22l-0.03,3.32c0,0.08-0.02,0.15-0.05,0.22c-4.75,9.92-11.84,18.76-20.45,25.28
				c-2.04,1.55-4.21,2.93-6.5,4.4c-3.42,2.19-6.97,4.46-10.27,7.41c-3.64,3.24-7.26,6.82-10.92,10.79c-0.28,0.3-0.78,0.18-0.88-0.22
				c-7.78-31.13-26.87-58.64-54.27-76.93c-21.26-14.19-49.55-12.4-68.81,4.35c-28.22,24.54-44.54,59.92-44.91,97.24
				c0,0.46-0.57,0.68-0.89,0.35c-2.97-3.12-5.93-5.99-8.9-8.64c-3.31-2.94-6.85-5.21-10.27-7.4c-2.29-1.47-4.46-2.86-6.5-4.41
				c-2.93-2.22-5.72-4.64-8.32-7.24c-2.6-2.6-5.02-5.4-7.21-8.36c-2.17-2.95-4.12-6.06-5.78-9.33c-1.66-3.26-3.04-6.67-4.09-10.18
				c-0.52-1.73-1-3.52-1.3-5.32c-0.31-1.83-0.37-3.65-0.36-5.51c0.01-1.39,0.04-2.79,0.04-4.18v-8.01c0-2.73,2.21-4.94,4.94-4.94
				h43.85c4.48,0,8.11-3.63,8.11-8.11v0c0-4.48-3.63-8.11-8.11-8.11h-60.08c-2.73,0-4.94,2.21-4.94,4.94V323.3
				c0,0.28,0.23,0.51,0.51,0.51h22.14c0.18,0,0.34,0.09,0.43,0.24c2.8,4.5,7.79,7.5,13.48,7.5c8.47,0,15.39-6.64,15.84-14.99
				c0.18-3.39,0.03-7.53-2.01-10.4c-1.89-2.67-5.56-4.52-8.59-5.49c-3.03-0.98-6.31-1.13-9.39-0.29c-3.86,1.04-7.24,3.57-9.34,6.97
				c-0.09,0.15-0.26,0.24-0.43,0.24h-2.09c-2.39,0-4.33-1.94-4.33-4.33v-71.96c0-0.42,0.47-0.66,0.81-0.41
				c15.35,11.12,34.83,17.4,54.43,17.21c3.44-0.03,6.77-0.32,9.99-0.59c4.32-0.37,8.39-0.72,12.39-0.45
				c19.08,1.27,38.31,6.37,56.38,11.9c0.07,0.02,0.14,0.06,0.19,0.11c17.46,15.5,32.6,32.43,45.22,50.59
				c0.24,0.34-0.01,0.81-0.42,0.81h-96.07c-0.46,0-0.69-0.55-0.36-0.88l18.49-18.5c1.61-1.61,2.41-3.71,2.41-5.82
				c0-4.5-3.66-9-11.03-8.63c-0.13,0.01-0.25,0.06-0.34,0.15l-42.09,42.09c-2.96,2.96-0.86,8.03,3.33,8.03h223.25
				c2.37,0,4.3-1.91,4.32-4.28c0,0,2.77-265.72,2.77-265.72c0,0,0.04-3.57,0.04-3.57l0.12-11.39c0.02-2.32-1.85-4.22-4.18-4.22
				H542.87z M365.69,234.42c-5.03-0.33-9.82,0.08-14.46,0.47c-3.11,0.27-6.04,0.51-8.96,0.54c-6.33,0.06-12.65-0.66-18.76-2.11
				c-8.39-1.97-16.4-5.29-23.56-9.75c-4.81-3-9.23-6.51-13.12-10.48c-0.09-0.1-0.15-0.23-0.15-0.36V99.25
				c0-0.51,0.67-0.71,0.94-0.28c5.1,8.03,11.58,15.16,19.14,20.88c2.4,1.82,4.86,3.39,7.24,4.92c3.19,2.04,6.2,3.98,8.83,6.31
				c6.18,5.5,12.29,12.04,18.8,20.16c0.06,0.07,0.09,0.15,0.11,0.24c5.22,34.49,24.18,65.94,52.92,86.62
				c0.39,0.28,0.79,0.57,1.18,0.86C385.94,236.76,375.85,235.1,365.69,234.42z M554.72,309.63c-0.02,2.37-1.96,4.28-4.33,4.28
				h-61.45c-0.18,0-0.35-0.1-0.44-0.26c-0.54-0.96-1.17-1.92-1.82-2.92c-1.38-2.11-3.37-5.07-5.76-8.57
				c-3.48-5.1-7.15-10.11-11-15.02c-0.17-0.22-0.14-0.53,0.07-0.71c11.26-9.41,23.31-18.5,36.22-25.13
				c3.14-1.61,6.53-2.72,10.13-3.9c2.68-0.88,5.46-1.79,8.24-2.95c11.54-4.81,21.9-12.52,30.05-22.06c0.31-0.36,0.9-0.14,0.9,0.34
				L554.72,309.63z M556.98,93.05v0.06l-1.17,111.64v0l-0.05,4.8c0,0.08-0.02,0.15-0.05,0.22c-7.11,15.07-20.11,27.59-35.57,34.05
				c-2.37,0.98-4.81,1.79-7.4,2.64c-3.87,1.27-7.86,2.58-11.8,4.61c-13.35,6.85-25.64,16-37.07,25.47h0
				c-0.03,0.02-0.05,0.04-0.08,0.06c-0.36,0.3-0.69,0.61-1,0.94c-0.21,0.22-0.56,0.2-0.76-0.03c-0.25-0.29-0.5-0.58-0.75-0.87
				c-10.83-12.59-22.91-24.49-36.15-35.64c-6.67-5.62-13.63-11.03-20.89-16.25c-29.77-21.42-47.54-56.07-47.54-92.69
				c0-21.64,6.14-42.58,17.4-60.55c0,0,0,0,0.01-0.01c5.92-9.45,13.25-18.08,21.85-25.56c13.68-11.89,33.78-13.16,48.89-3.08
				c31.84,21.26,50.85,56.76,50.85,94.98c0,27.63-9.75,53.76-27.64,74.46l0,0c-0.8,1.41-1.62,2.83-2.47,4.27
				c-0.03,0.05-0.05,0.1-0.06,0.16c-0.57,2.58,0.12,5.36,2.11,7.35l0.34,0.34c1.89,1.89,4.47,2.63,6.9,2.24
				c1.78-0.28,3.49-1.17,4.78-2.63c21.02-23.84,32.49-54.13,32.49-86.19c0-5.41-0.33-10.77-0.99-16.06
				c-0.02-0.14,0.02-0.28,0.11-0.39c5.6-6.75,11.01-12.42,16.42-17.25c2.63-2.34,5.65-4.27,8.84-6.31c2.38-1.52,4.84-3.1,7.24-4.92
				c4.7-3.56,9.02-7.71,12.84-12.31c0.16-0.19,0.32-0.39,0.47-0.58L556.98,93.05z"/>
		</g>
		<g>
			<g>
				<path class="st0" d="M570.34,56.89l0.04-3.57C570.6,54.48,570.6,55.69,570.34,56.89z"/>
			</g>
		</g>
		<g>
			<path class="st3" d="M468.07,212.3L468.07,212.3c-0.81,1.44-1.65,2.89-2.52,4.34c-0.65,1.1-1.32,2.2-2,3.31
				c-0.06,0.1-0.13,0.2-0.19,0.3c-8.16,13.03-22.74,20.53-38.03,20.74c-0.12,0-0.24-0.04-0.34-0.12
				c-6.62-5.57-13.54-10.95-20.74-16.13c-29.77-21.42-47.54-56.07-47.54-92.69c0-21.64,6.14-42.58,17.4-60.55c0,0,0,0,0.01-0.01
				c5.41-6.12,11.88-12.19,19.54-18.16c7.83-6.11,18.49-7.2,27.39-2.81C453.41,66.47,522.83,115.27,468.07,212.3z"/>
		</g>
		<g>
			<g>
				<circle class="st0" cx="411.66" cy="78.26" r="13.65"/>
			</g>
			<g>
				<g>
					<path class="st0" d="M468.07,212.3c-0.81,1.44-1.64,2.88-2.51,4.34c0.3-1.28,0.92-2.51,1.84-3.57
						C467.63,212.82,467.85,212.56,468.07,212.3z"/>
				</g>
			</g>
		</g>
		<g>
			<path class="st4" d="M473.3,315.69"/>
		</g>
	</g>
</g>
</svg>
